# xmcd
#
# Track frame offsets:
#	150
#	24475
#	41709
#
# Disc length: 1058 seconds
#
# Revision: 1
# Processed by: cddbd v1.5PL3 Copyright (c) Steve Scherf et al.
# Submitted via: CDex 1.50Beta5
#
DISCID=1d042003
DTITLE=Playing Enemy - Epemera
DYEAR=2003
DGENRE=Electronica/Dance -> General Electronic
TTITLE0=John Q. Russia
TTITLE1=Must Bring Own Weapon
TTITLE2=You Have Got To Be Crazy
EXTD=
EXTT0=
EXTT1=
EXTT2=
PLAYORDER=
